# xmcd
#
# Track frame offsets:
# 150
# 15802
# 34858
# 47434
# 64746
# 78439
# 93056
# 115571
# 128887
# 145923
# 156667
# 173033
# 190150
# 207028
# 217661
# 232046
# 259685
#
# Disc length: 3703 seconds
#
#
# Revision: 6
# Processed by: cddbd v1.5.1PL0 Copyright (c) Steve Scherf et al.
# Submitted via: FreeRIP 2.91 
#
DISCID=d50e7511
DTITLE=Duncan Dhu - Crepusculo
DYEAR=2001
DGENRE=Alt Rock
TTITLE0=Nada
TTITLE1=Siempre (Al Abandonarnos)
TTITLE2=Desnuda
TTITLE3=Nunca Me Enamoraria De Noche (Jack Nicholson No Miente)
TTITLE4=Como Dioses Pequeños
TTITLE5=Aguas Tranquilas
TTITLE6=Acuerdate
TTITLE7=Te Quiero
TTITLE8=Lobos
TTITLE9=Piezas (Pensando En Ti Todo Encaja Otra Vez)
TTITLE10=Y La Tarde Esta Muriendo
TTITLE11=Hasta Que La Luz Nos Despierte
TTITLE12=Y Es Que El Amor
TTITLE13=Imagino
TTITLE14=Tu
TTITLE15=Balada
TTITLE16=Pista De Datos (Videoclip Siempre)
EXTD=YEAR: 2001
EXTT0=
EXTT1=
EXTT2=
EXTT3=
EXTT4=
EXTT5=
EXTT6=
EXTT7=
EXTT8=
EXTT9=
EXTT10=
EXTT11=
EXTT12=
EXTT13=
EXTT14=
EXTT15=
EXTT16=
PLAYORDER=
